# xmcd CD database file
#
# Track frame offsets:
#	150
#	15082
#	31972
#	56182
#	74145
#	90497
#	109767
#	127792
#	142210
#	155780
#	177832
#
# Disc length: 2607 seconds
#
# Revision: 6
# Processed by: cddbd v1.5.1PL0 Copyright (c) Steve Scherf et al.
# Submitted via: CDex 1.51
#
DISCID=950a2d0b
DTITLE=Alabama - Greatest Hits 2
DYEAR=1991
DGENRE=Country
TTITLE0=Born Country
TTITLE1=Then Again
TTITLE2=Dixieland Delight
TTITLE3=Lady Down On Love
TTITLE4=The Closer You Get
TTITLE5=Roll On (Eighteen Wheeler)
TTITLE6=Fallin' Again
TTITLE7=Song of the South
TTITLE8=High Cotton
TTITLE9=Take Me Down
TTITLE10=Hats Off
EXTD=Members of Alabama:  Randy Owen, Mark Herndon, Teddy Gentry, andJeff \n\nCook. YEAR: 1991
EXTT0=John Schweers - Byron Hill ASCAP\nProduced by Josh Leo, Larry Michael Lee and Alabama
EXTT1=Rick Bowles - JeffSilbar BMI - ASCAP\nProduced by Josh Leo, Larry Michael Lee and Alabama
EXTT2=Ronnie Rogers BMI\nProduced by Harold Shedd and Alabama
EXTT3=Randy Owen BMI\nProduced by Harold Shedd and Alabama
EXTT4=J. P. Pennington - Mark Gray BMI\nProduced by Harold Shedd and Alabama
EXTT5=Dave Loggins ASCAP\nProduced Harold Shedd and Alabama
EXTT6=Teddy Gentry - Greg Fowler - Randy Owen BMI\nProduced by HaroldShedd and Alabama
EXTT7=Bob McDill ASCAP\nProduced by Josh Leo and Alabama - Associate Producer: Larry Michael Lee
EXTT8=Roger Murrah - Scott Anders BMI\nProduced by Josh Leo and Alabama - Associate Producer:  Larry Michael Lee
EXTT9=J. P. Pennington - Mary Gray BMI\nProduced by Harold Shedd and Alabama
EXTT10=Randy Owen - Teddy Gentry - Greg Fowler - Ronnie Rogers BMI\nProduced by Josh Leo, Larry Michael Lee and Alabama
PLAYORDER=
